<mxfile host="65bd71144e">
    <diagram id="fl6mv7f3LxexocWgDk5I" name="Page-1">
<<<<<<< HEAD
        <mxGraphModel dx="503" dy="394" grid="1" gridSize="10" guides="1" tooltips="1" connect="1" arrows="1" fold="1" page="1" pageScale="1" pageWidth="3300" pageHeight="4681" math="0" shadow="0">
=======
        <mxGraphModel dx="729" dy="275" grid="1" gridSize="10" guides="1" tooltips="1" connect="1" arrows="1" fold="1" page="1" pageScale="1" pageWidth="3300" pageHeight="4681" math="0" shadow="0">
>>>>>>> origin/main
            <root>
                <mxCell id="0"/>
                <mxCell id="1" parent="0"/>
                <mxCell id="42" style="edgeStyle=none;html=1;exitX=0.5;exitY=1;exitDx=0;exitDy=0;entryX=0;entryY=1;entryDx=0;entryDy=0;" parent="1" source="33" target="92" edge="1">
                    <mxGeometry relative="1" as="geometry">
                        <mxPoint x="70" y="3020" as="targetPoint"/>
                    </mxGeometry>
                </mxCell>
                <mxCell id="33" value="V&lt;span style=&quot;background-color: transparent;&quot;&gt;olunteer&lt;/span&gt;&lt;div&gt;&lt;span style=&quot;background-color: transparent;&quot;&gt;&lt;br&gt;&lt;/span&gt;&lt;/div&gt;" style="rounded=0;whiteSpace=wrap;html=1;fillColor=#d5e8d4;strokeColor=#82b366;" parent="1" vertex="1">
                    <mxGeometry x="20" y="1990" width="100" height="60" as="geometry"/>
                </mxCell>
                <mxCell id="35" value="Application&lt;br&gt;&lt;div&gt;&lt;span style=&quot;background-color: transparent;&quot;&gt;&lt;br&gt;&lt;/span&gt;&lt;/div&gt;" style="rounded=0;whiteSpace=wrap;html=1;fillColor=#d5e8d4;strokeColor=#82b366;" parent="1" vertex="1">
                    <mxGeometry x="190" y="1990" width="100" height="60" as="geometry"/>
                </mxCell>
                <mxCell id="36" value="&lt;div&gt;&lt;span style=&quot;background-color: transparent;&quot;&gt;Admin&lt;/span&gt;&lt;/div&gt;" style="rounded=0;whiteSpace=wrap;html=1;fillColor=#d5e8d4;strokeColor=#82b366;" parent="1" vertex="1">
                    <mxGeometry x="580" y="1990" width="90" height="60" as="geometry"/>
                </mxCell>
                <mxCell id="37" value="&lt;div&gt;&lt;span style=&quot;background-color: transparent;&quot;&gt;DataBase&lt;/span&gt;&lt;/div&gt;&lt;div&gt;&lt;span style=&quot;background-color: transparent;&quot;&gt;&lt;br&gt;&lt;/span&gt;&lt;/div&gt;" style="rounded=0;whiteSpace=wrap;html=1;fillColor=#d5e8d4;strokeColor=#82b366;" parent="1" vertex="1">
                    <mxGeometry x="430" y="1990" width="90" height="60" as="geometry"/>
                </mxCell>
                <mxCell id="43" value="" style="shape=image;verticalLabelPosition=bottom;labelBackgroundColor=default;verticalAlign=top;aspect=fixed;imageAspect=0;image=data:image/png,iVBORw0KGgoAAAANSUhEUgAAAAkAAAAJAQMAAADaX5RTAAAABlBMVEV7mr3///+wksspAAAAAnRSTlP/AOW3MEoAAAAdSURBVAgdY9jXwCDDwNDRwHCwgeExmASygSL7GgB12QiqNHZZIwAAAABJRU5ErkJggg==;" parent="1" vertex="1">
                    <mxGeometry width="9" height="9" as="geometry"/>
                </mxCell>
                <mxCell id="44" style="edgeStyle=none;html=1;" parent="1" edge="1">
                    <mxGeometry relative="1" as="geometry">
                        <mxPoint x="240" y="3010" as="targetPoint"/>
                        <mxPoint x="240" y="2051" as="sourcePoint"/>
                        <Array as="points">
                            <mxPoint x="240" y="2600"/>
                        </Array>
                    </mxGeometry>
                </mxCell>
                <mxCell id="76" value="" style="endArrow=none;dashed=1;html=1;dashPattern=1 3;strokeWidth=2;exitX=0;exitY=0.5;exitDx=0;exitDy=0;entryX=1;entryY=0.5;entryDx=0;entryDy=0;fillColor=#e1d5e7;strokeColor=#9673a6;" parent="1" edge="1">
                    <mxGeometry width="50" height="50" relative="1" as="geometry">
                        <mxPoint x="70" y="2740" as="sourcePoint"/>
                        <mxPoint x="620" y="2740" as="targetPoint"/>
                    </mxGeometry>
                </mxCell>
                <mxCell id="79" value="Text" style="text;html=1;align=center;verticalAlign=middle;whiteSpace=wrap;rounded=0;" parent="1" vertex="1">
                    <mxGeometry x="260" y="2620" width="60" height="30" as="geometry"/>
                </mxCell>
                <mxCell id="92" value="" style="rounded=0;whiteSpace=wrap;html=1;" parent="1" vertex="1">
                    <mxGeometry x="70" y="2510" width="560" height="500" as="geometry"/>
                </mxCell>
                <mxCell id="94" value="" style="endArrow=none;dashed=1;html=1;dashPattern=1 3;strokeWidth=2;exitX=0;exitY=0.5;exitDx=0;exitDy=0;fillColor=#dae8fc;strokeColor=#6c8ebf;" parent="1" edge="1">
                    <mxGeometry width="50" height="50" relative="1" as="geometry">
                        <mxPoint x="70" y="2770" as="sourcePoint"/>
                        <mxPoint x="630" y="2770" as="targetPoint"/>
                    </mxGeometry>
                </mxCell>
                <mxCell id="96" value="" style="shape=image;verticalLabelPosition=bottom;labelBackgroundColor=default;verticalAlign=top;aspect=fixed;imageAspect=0;image=data:image/png,iVBORw0KGgoAAAANSUhEUgAAACgAAAASCAIAAACmfQvxAAAC40lEQVRIDb2UXUhTYRjHvdIuFqgEdieEutKZgkLdKFpQKrPIEEK8iS4GigiWogQhOUSIJOelmJctuxEvRuD3SBxF08JtfuBxWmdrnu/j3rOds7M98XakbEI7rY/Dw+Gch/Oe3/P8n/f9ZwQ/qzQDNP1fg2Eg4wuZPlgQgOPSqfhPwU7nR48nwLKYzbIgCHqLwOD0pGYYoKh4cfHFgYGnCAHDwM4Ot7zsYfRN7TfAHAfhMEgSvrMsJlFUvKSkzGodRghkGXp7Hzc23lZVEMXUfeuVmmXB4yFttuc9Pf1jYy9IUuI4DDaZyq3WYVkGl2u9svJyQYGxr6/fbnfwfAq23o5FEbq6HtbWXrdY2ouKLpjNTTSt0HRCAysKOJ3u0tLy/PxzFkvHxMSrlMPWC6ZpCIVioggHB5GpqXmDwbCy4uM40MAIQTQKnZ29ZnNTLKZri+mVWhDA5fLV1d0oKDAajcWZmVmzs+94/gcYIWhvf1Bff1PPgGkab5HU55hlgSDYwsLzLS1319a25ufdublnZmbeauDBwWcIAULQ1na/oeHW4WGK6WpmtbcVTX2cRBEWF1ezsk653QQALC19MBhOz829F0UoKSnr7n4kyxjc0dFTUXFJFOEXbIaBg1Bi1ydRZFRXxyQZrq6+ajKVNzffqaq6kpd3tr//iaLgI5SdnWOzjUej4HC8yc7Oqam51tp6jyB4zVWOOzHDQCgQ3/VKPKUA6JCaprEvEgQ/OjoxMjLu9QZdrg273cFyQNHxycnX09NLPI/31MKCe2hodHz8ZSAoJzkJw0BgX/V7ERJU+HZhqSkaKCo5cLHHkiyDrUNzD57HLkFReJyiCAJ/tFbgAYWPpE764SdC2d+U5Ghco+KOiXW0txlJjg2JWEe7Xik5f/JLHRm/Twr6I2os8Z2KwcHdSExJJEVUim+7D0lCSsqn/XocqT1nKPJPhWhZVU1srx4G/ZGTC/5WJiNJgSNw7J+DvwL9hX4NX9ZK8wAAAABJRU5ErkJggg==;" parent="1" vertex="1">
                    <mxGeometry x="70" y="2510" width="60" height="27" as="geometry"/>
                </mxCell>
                <mxCell id="97" value="" style="shape=image;verticalLabelPosition=bottom;labelBackgroundColor=default;verticalAlign=top;aspect=fixed;imageAspect=0;image=data:image/png,iVBORw0KGgoAAAANSUhEUgAAAIIAAAAbCAIAAAA/CMAhAAAKDElEQVRoBe1YeUwT2xfGqETFEoVSlEQjCgitS6EFlWjVuLAEgT9ARI1INBrjFvcFjUZirFoX3BJwRUHiEjWamKJBNJRUwbQotlBadmQpUMTOdJvlPMfrb34NkZegwnsvYf5ozpx75rvnfl/vPWfGxaDGTG12AKivtDTprQBgbLIZPmAkQVvMpF5lNncRNAXV5VhbvQ0AmmustRocALo7HHqV2YaTDjtlKMM6WxmQBp2lscoCAB3NNkMZRjhoK8aAfO100DTUfMJbahmQllpbzSecpuFrJwNixUjCQRvKsI5mZrSxytKgY0A6W+2GMsxhp2w4A9Ld4QCAWg3eXMPk2VZvqy7HaArMXYReZbaYSZKgDR8wYxMD0qS31lcyIKY2u0GN2W2UzUrp1eYvRgakTot/NnxfbIOt+iNGkTT2hahSmfFugiLp6o+YsZEB+Wyw1lUwi+0yOvRqs81K2W0MSJfxO2MVeBMC+R9j+FeySmXGvhAUxYD8YKz6B2Nf2r8zZqEcNsqg/sFYfaWlUW9xoUiapgEAKIqmKMagKaBIxkXTjPFjlKRpdpT6/yigZ9kwBsRplEFxAqH+NEjveVIUsyJ2FczCoJdMegdhqPhbkD/FmAvKb/D3n2VgUIZ/lv8fsw/K8O+WQalUJiUlxcbGSqVSNlOr1VpRUcHe9jAOHjz49OnTHs6f3jY1NUmlUpPJ9NPR/5Dz+vXrsbGxSUlJL1++/J20e90NOTk5Li4uu3btunfvHjtBfn7+3LlzCYJgPc6GQCA4fvy4s6c3W6lU+vr66nS63gL+K365XJ6WljZq1Kjz58//Ts69ypCbm8vlcnGcadfYa+XKlS4uLqWlpawHGTiO0zQdGhp68uRJAHA4mKaQpmmLhWkZAYAkSauVaRC/t2QUjuOdnZ3IRqLa7XabjekRf3oRBOGcCU3TKNhms9ntTO+ILmRTFMXOi6ZAwXa7nfXTNM0CIvtHR/gdyGq1oiUAgPNTaBaSJFkc5AkICMjIyED2r/3+nQyenp7t7e0sbnV1tZ+fn0gk2r59O+tsaGhISEgIDAxcsGCBp6fnuXPnvrX2KSkpp0+fjoyM9PPz27Bhw7Vr1yQSib+//6FDh0iS1Gq1AoFALBZ3dXXp9frY2NiMjIxZs2ZNnTr17NmzznQgEqVSqVgsFggE0dHRZWVlzJuN0RgWFpacnBwaGhoUFJSWloZ4WbduXXR09NKlS/39/RMSEgwGAwAUFhaGh4fLZLKQkJBNmzYBwKNHj2bPns3n8xcvXqxQKAAgOTn54MGDaFE6nU4oFFZWVhIEcezYseDgYIFAsGrVqoaGBgB48OCBSCSaNm3aypUru7q6kE7+/v4DJ0N6enp0dPSjR48mTJiAMuju7haJRPHx8SqVSi6Xe3p6nj17FgBmzZolFAqLi4vlcrmbm5tEIiktLb13756rq+uLFy9sNlt2dvaYMWPa29t1Ot2wYcM2b95cVlaWlZXl6uqqUqlYjdGWunXrlkKhqKmpSUlJEYvFJEm2tLRwOJy9e/d+/PjxyZMnPB4vLS0NAJYuXTpnzpzS0lKlUrlo0SKxWOxwOPLz811cXFJTU9+/f19XV1dUVDR69OjLly+Xl5cfOHDA29u7tbU1JyfHx8cHLerQoUMSiQQAdu/eHRwcrFQqtVptcnLyvHnzjEajt7f3gQMHNBpNdnY2hmEDLQOO4wEBATdu3MAwjMfjoYJx584dLy8vlD0AhIaGnjp1CgDCwsLYwh4cHMyemwKBAP1rFAoFl8tFMowdOxYVCYfDMWnSpLy8PGcZkK1UKmUy2datW3k8XkdHR1tbm5eXl1KpRKMymczX15cgiIiIiD179iBnRUXFyJEj1Wp1QUGBu7t7U1MT8q9evToyMhLZDodj4sSJmZmZNptt8uTJeXl5BEEEBgY+ffrUZDJ5eHjIZLLS0tKSkpL79+8PHz68pKREIpHExcXV1tYihIGW4fHjx1wut7W1FQASExOjoqIAYP/+/WFhYWxCIpGIlQHVapqmhULhmTNnUHmYPn36hQsXAOD169esDB4eHp8+fULrCQoKunv3LguInOvXr/f19V2zZk1MTAyPxzMajUiGN2/eoMiHDx/yeDyz2RwZGbljxw7kNBqNHh4e+fn5BQUF48ePZ7uy+fPnb926lZ0iJCTk8OHD326PHDmybNmyZ8+eBQcHOxwOtVrt6uoaHR2dmJiYkJCQmJiYlJTU0NDQ2Ni4YsWK8ePH79ixA1UXu90+cIdSXFzc0KFDhULhzJkzvby8Ro0a1dLScu7cuYkTJ7LVzHk3/CkZ8vPzORyOXq8HAK1W6+Pjw8rA7oYTJ05MmTKlx24oLy8fMWLEhw8fXr58OW7cONQRoDIQFxeHZLBarT4+PleuXGG+MtXVTZkyJSgo6NKlS8wXtvp6d3f3169fs4I5G2/fvnVzc7t58+aA7gaNRjN8+PB9+/bl5eXl5ubeunWLw+GcPHmytraWw+Fs27ZNq9UqFApvb+/Tp08DgEgkSk9PRyf79OnTkZMkST6fjw6owsJCVBsqKyvd3d3Ly8vZ9eTm5jovGB0pr1690mg069atc3V1ra+vb29v9/DwkEqlOp0ObVOkemRkZFRUlFarfffunUQiQb318+fPuVwuK4NcLnd3d797925lZeXOnTu9vb1R7f2mxNq1a8eOHYsiaZpOTU3l8/lFRUVVVVW3b99Wq9U0TWdkZBQXF6tUqjFjxmRmZrJpD0SJlslkQqEQVSTE0fbt25csWULTtFwuF4vFAQEBy5YtEwqFV69eBYCYmJiLFy8iGSIiIrKystChtHjx4hs3bgCAUqmcMWNGZ2dndXX1tGnT2NqwcOHCJ0+eOMtAEMThw4f9/PzmzJkjlUoTEhKysrJMJhOPxwsPD585c2ZgYOCRI0fQjoyJifH39w8PD/fz81u+fDnit6CgICQkhC1gAJCdnR0SEhIUFLRw4cLi4mJ2uqKiohMnTrC3ZrN5165dfD5fIBB8E/jdu3cURW3cuHHq1Kl8Pn/z5s3d3d0DIQOXy0XUYxjWo6knSfLr16+ouaQoCiXEdvEWi4Vt5y0WC3tq4TiObJIkMQyjaZqiKAzDKPShEgDH8Z++G5rNZjYBi8XS3NzM4/EUCoWzHwCWLFmye/duq9VqNptZNtm5WA8AEASBcnZ2/tS2WCw9IrHvl3NwP7435OTkDBkyJC0t7fHjx85T/hvsz58/czicwsLCHslIJJItW7b0cPbrbUFBQXp6upubG9sN/tp0vb6+FRcXx8fHR0REoFP+19D76SmTyZSSkqLRaHrgHz16FB16Pfz9d5uZmRkREREfHy+Xy39nll5l+B3QwWf7ysCgDH1lrF/iB2XoF1r7CjooQ18Z65f4QRn6hda+gg7K0FfG+iV+UIZ+obWvoIMy9JWxfokflKFfaO0r6F+y4kncFd6QgwAAAABJRU5ErkJggg==;" parent="1" vertex="1">
                    <mxGeometry x="290" y="2520" width="130" height="27" as="geometry"/>
                </mxCell>
                <mxCell id="99" value="" style="shape=image;verticalLabelPosition=bottom;labelBackgroundColor=default;verticalAlign=top;aspect=fixed;imageAspect=0;image=data:image/png,iVBORw0KGgoAAAANSUhEUgAAAGYAAAAWCAIAAAC9n370AAAHcElEQVRYCe1Xe0iTaxgfpZKFY8nMYSJprFYy54VSNxvqJpq3VlRa5hA00cyKMC8jF4X/VCYELS8lmpZ00+iCl8RomTovgRY11zBn05yX5TR16bbvOcfzwnuG2YHpgXP+8Pvj4/l+7+953uf97Xnf9xkJVh8LFSBZyF+lw6pkFhfBgmT9/f0pKSlCoVAsFhMEgWIYjca+vr7fxSsuLq6oqPjdqDmu1WoLCwvHx8fNwRXaSqXy9u3bc3NzK4yD3QmCEIvFQqEwLS1taGgI40saC5K1traSSKQjR44UFBRgyT58+ODn5zczM7OkW1RUVHx8/JJDi8Du7m5HR8eurq5F+Eo+79+/v2XLlrGxMYuC1NbWlpeXL+lCEERBQUFsbCyJROru7l6Sg8EFyWQyma2t7efPnzEKACKRiEQivXz50hwEAKPRCAAxMTGJiYkAgCVGOCJjmyAIg8EwNjaGaYhgMpkWhV2EGwwGzCEIAgcEAJPJpNfrfy1bcw4ObjAYcOSYmJj4+HjzyOb5A4BCoSCTyT09Pdh9SeNvyd6/f48ZExMTTCbTy8vLvJSmp6czMzNZLBafz3dzc0tNTQWAjIyM69evx8XFubu7JycnP3nyJDIy0t3dPScnZ25ubmBgwNfXl81mDw8Pa7Xa2NjY8vJyHo/HZDIvX7786yKTkpJyc3NPnDjh4eEhk8lMJlN+fr6vr6+3t/fJkydRWZWVlXl7e7PZbLVajRSUSCT+/v5eXl7Hjx//9u0bWsXDhw/5fL6np2dERER7e3tNTY29vT2VSvXx8bl16xYAlJSU7P7rEYvF6Ofp6elZvmSVlZXe3t4NDQ2Ojo5ob5tMpri4OCaTWV9f39DQ4OLikpKSAgDR0dEuLi5Pnz6tra2lUqk7duyor69/9OiRra1tVVXV3NxcZWWlnZ3dwMDA+Pg4mUwWCARSqbSsrMzGxqapqQn/SMjg8XgUCqW0tLS5uXl2djYrK4vJZDY2Nra1tYWGhu7du3d+fl6j0Tx48IBCoSiVSgDIy8uj0+l1dXUdHR0HDhzYs2ePwWCoqKigUChFRUUymayoqKi9vV2r1YaHhwsEgq6uruHhYYVCYWVlJZFIpFJpSUkJ2gTLl4wgCC6Xe/78eaPR6OrqeuPGDQDo6OhYv3493ueHDx9GGzMqKiotLQ0tOCws7MyZM8jmcrlZWVkA0N3dTaVSkWRUKlUqlSKCh4fHtWvXkI3fQUFBQqEQfQ4NDVEolMLCQoVC0dvb+/jxY2tra7lcDgBKpZJGo3358mVyctLR0fHKlSuIU1dXZ2Nj09raymKxcnNzcVhkJCQkJCcnI1utVjs4OIjFYr1ej2nLl6yzs5NMJn/8+BEA0tPTd+/eDQB37txxdnaenZ1FExw8ePBXyUJDQ0+fPo0IPB4vOzsbALq6urBkDg4Or169QoSAgID8/HycLjICAwNzcnKQLZPJrK2t+Xx+ZGRkREQEeqtUKgD49OkTjUZTqVQKhWLdunVBQUGYEx4eLpVKN23a9Pz580XBhUJhUlISBqVSKZvNptPppaWlK62yU6dOkUgkPz8/Npvt6uq6Zs0auVz+4sULOzu7kZERNCU+/s2rzFyy4ODgf5aMw+EsKRmqTXQYb9iwoaOjAy8SG0iyP3sjjUZDJpMbGxvxEADMzs46OzujzWGOHzt2zFwyNFRSUmJtbY0u9GVW2ejoKJVKjYuLKyoqunnzpkQiodFoGRkZOp3OyckpPj5eqVQqFAofHx80fUREBLoHACAkJCQ9PR2lEhgYmJmZCQCdnZ0bN25EG9Pe3h6fX/7+/levXjVfEgBwudxz584h0Gg0CgQCf3//np6ewcHBmpqa3t5eNIQkQ2eZUChksVjv3r0bGhp69uwZuu+ys7OdnJyampoGBwdra2tbWloA4OzZswwGQ6lUqtVqnU5XXFzc19f3+vXrtWvXvnnzBgCWKdndu3c3b9789etXvJgLFy54eHjo9fq3b9/u2rXL1dU1ODiYxWJlZGQAwNGjR5E0AHDo0CGRSIQcBQLBpUuX0Fm2bds2tVqt1Wq3b9/e3NyMCOHh4RKJBM+CjOjo6IsXL2JwfHw8ISGBTqfv3LkzMDBQJpOhIblcTqPRUFc0OTmZmpqKOAEBAWjj//z5UyQS0el0BoPh6elZVVUFACqVisvlurm57d+/X6VS8Xi8rVu3MhgMdLkvRzKcwcTEBE76zwZtfn5+dHQUNThGo3FkZESv18/MzPz48QMAJicnp6enEd/c1ul0qA02GAxardZkMhEEodVq5+fnEVmn0+GTEU+n0+lwNAx+//4dHwgIxJWLORMTExqNZlH3NzU1pdFozP8koPynpqaQ4+joqPliLejL2traSCSSSCSqrq7GSfw/jZGRkXv37nE4nH379uE2deWpEgRRXV2dk5NjZWWFu4LfhV1oZeVyOZ/P53A4iYmJuOf+ncN/i7e0tISEhOTl5el0un8xE5PJlJiYyOFwwsLC+vv7/znygmSrj0UKrEpmkVwL5FXJViWzWAGLHVarbFUyixWw2OEPZuMQfKuoKHMAAAAASUVORK5CYII=;" parent="1" vertex="1">
                    <mxGeometry x="299" y="2780" width="102" height="22" as="geometry"/>
                </mxCell>
                <mxCell id="100" value="" style="endArrow=none;html=1;" parent="1" edge="1">
                    <mxGeometry width="50" height="50" relative="1" as="geometry">
                        <mxPoint x="240" y="3010" as="sourcePoint"/>
                        <mxPoint x="240" y="2510" as="targetPoint"/>
                    </mxGeometry>
                </mxCell>
                <mxCell id="101" value="" style="endArrow=none;html=1;entryX=0.578;entryY=1.033;entryDx=0;entryDy=0;entryPerimeter=0;" parent="1" target="37" edge="1">
                    <mxGeometry width="50" height="50" relative="1" as="geometry">
                        <mxPoint x="480" y="3010" as="sourcePoint"/>
                        <mxPoint x="475" y="2050" as="targetPoint"/>
                    </mxGeometry>
                </mxCell>
                <mxCell id="103" value="" style="endArrow=classic;html=1;" parent="1" edge="1">
                    <mxGeometry width="50" height="50" relative="1" as="geometry">
                        <mxPoint x="480" y="3010" as="sourcePoint"/>
                        <mxPoint x="480" y="3010" as="targetPoint"/>
                    </mxGeometry>
                </mxCell>
                <mxCell id="104" style="edgeStyle=none;html=1;entryX=1;entryY=1;entryDx=0;entryDy=0;" parent="1" target="92" edge="1">
                    <mxGeometry relative="1" as="geometry">
                        <mxPoint x="630" y="3019" as="targetPoint"/>
                        <mxPoint x="630" y="2050" as="sourcePoint"/>
                        <Array as="points">
                            <mxPoint x="630" y="2599"/>
                        </Array>
                    </mxGeometry>
                </mxCell>
<<<<<<< HEAD
                <mxCell id="108" value="" style="endArrow=classic;html=1;" parent="1" edge="1">
                    <mxGeometry width="50" height="50" relative="1" as="geometry">
                        <mxPoint x="630" y="2850" as="sourcePoint"/>
                        <mxPoint x="480" y="2850" as="targetPoint"/>
                    </mxGeometry>
                </mxCell>
                <mxCell id="127" value="&lt;font face=&quot;Verdana&quot;&gt;5.Approve&lt;/font&gt;&lt;div&gt;&lt;div&gt;&lt;font face=&quot;Verdana&quot;&gt;(set status=approved)&lt;/font&gt;&lt;/div&gt;&lt;/div&gt;" style="text;html=1;align=center;verticalAlign=middle;whiteSpace=wrap;rounded=0;fillColor=none;" parent="1" vertex="1">
                    <mxGeometry x="465.5" y="2560" width="185" height="50" as="geometry"/>
                </mxCell>
                <mxCell id="136" value="&lt;div&gt;&lt;font face=&quot;Verdana&quot;&gt;7.&lt;/font&gt;&lt;span style=&quot;font-family: Verdana; background-color: transparent;&quot;&gt;Notify &quot;Approved&quot;&lt;/span&gt;&lt;/div&gt;" style="text;html=1;align=center;verticalAlign=middle;whiteSpace=wrap;rounded=0;fillColor=none;" parent="1" vertex="1">
                    <mxGeometry x="30" y="2700" width="250" height="30" as="geometry"/>
                </mxCell>
                <mxCell id="139" value="&lt;div&gt;&lt;font face=&quot;Verdana&quot;&gt;10.Notify&quot;Rejected&quot;&lt;/font&gt;&lt;/div&gt;" style="text;html=1;align=center;verticalAlign=middle;whiteSpace=wrap;rounded=0;fillColor=none;" parent="1" vertex="1">
                    <mxGeometry x="30" y="2950" width="250" height="30" as="geometry"/>
=======
                <mxCell id="106" value="" style="endArrow=classic;html=1;" parent="1" edge="1">
                    <mxGeometry width="50" height="50" relative="1" as="geometry">
                        <mxPoint x="630" y="2590" as="sourcePoint"/>
                        <mxPoint x="240" y="2590" as="targetPoint"/>
                    </mxGeometry>
                </mxCell>
                <mxCell id="108" value="" style="endArrow=classic;html=1;" parent="1" edge="1">
                    <mxGeometry width="50" height="50" relative="1" as="geometry">
                        <mxPoint x="630" y="2830" as="sourcePoint"/>
                        <mxPoint x="240" y="2830" as="targetPoint"/>
                    </mxGeometry>
                </mxCell>
                <mxCell id="109" value="" style="endArrow=classic;html=1;" parent="1" edge="1">
                    <mxGeometry width="50" height="50" relative="1" as="geometry">
                        <mxPoint x="240" y="2650" as="sourcePoint"/>
                        <mxPoint x="480" y="2650" as="targetPoint"/>
                    </mxGeometry>
                </mxCell>
                <mxCell id="116" value="" style="endArrow=none;dashed=1;html=1;" parent="1" edge="1">
                    <mxGeometry width="50" height="50" relative="1" as="geometry">
                        <mxPoint x="79.5" y="2750" as="sourcePoint"/>
                        <mxPoint x="239.5" y="2750" as="targetPoint"/>
                        <Array as="points"/>
                    </mxGeometry>
                </mxCell>
                <mxCell id="118" value="" style="endArrow=none;dashed=1;html=1;" parent="1" edge="1">
                    <mxGeometry width="50" height="50" relative="1" as="geometry">
                        <mxPoint x="240" y="2700" as="sourcePoint"/>
                        <mxPoint x="480" y="2700" as="targetPoint"/>
                    </mxGeometry>
                </mxCell>
                <mxCell id="122" value="" style="endArrow=none;dashed=1;html=1;" parent="1" edge="1">
                    <mxGeometry width="50" height="50" relative="1" as="geometry">
                        <mxPoint x="70" y="2990" as="sourcePoint"/>
                        <mxPoint x="240" y="2990" as="targetPoint"/>
                    </mxGeometry>
                </mxCell>
                <mxCell id="126" value="" style="endArrow=classic;html=1;" parent="1" edge="1">
                    <mxGeometry width="50" height="50" relative="1" as="geometry">
                        <mxPoint x="240" y="2880" as="sourcePoint"/>
                        <mxPoint x="480" y="2880" as="targetPoint"/>
                        <Array as="points">
                            <mxPoint x="360" y="2880"/>
                        </Array>
                    </mxGeometry>
                </mxCell>
                <mxCell id="127" value="&lt;font face=&quot;Verdana&quot;&gt;9-Approve&lt;/font&gt;&lt;div&gt;&lt;font face=&quot;Verdana&quot;&gt;&lt;br&gt;&lt;/font&gt;&lt;/div&gt;" style="text;html=1;align=center;verticalAlign=middle;whiteSpace=wrap;rounded=0;fillColor=none;" parent="1" vertex="1">
                    <mxGeometry x="310" y="2570" width="250" height="30" as="geometry"/>
                </mxCell>
                <mxCell id="128" value="&lt;div&gt;&lt;font face=&quot;Verdana&quot;&gt;10-Update status:approved&lt;/font&gt;&lt;/div&gt;" style="text;html=1;align=center;verticalAlign=middle;whiteSpace=wrap;rounded=0;fillColor=none;" parent="1" vertex="1">
                    <mxGeometry x="235" y="2620" width="250" height="30" as="geometry"/>
                </mxCell>
                <mxCell id="129" value="&lt;div&gt;&lt;font face=&quot;Verdana&quot;&gt;11-Confirmation&lt;/font&gt;&lt;/div&gt;" style="text;html=1;align=center;verticalAlign=middle;whiteSpace=wrap;rounded=0;fillColor=none;" parent="1" vertex="1">
                    <mxGeometry x="235" y="2670" width="250" height="30" as="geometry"/>
                </mxCell>
                <mxCell id="131" value="" style="endArrow=classic;html=1;" parent="1" edge="1">
                    <mxGeometry width="50" height="50" relative="1" as="geometry">
                        <mxPoint x="259" y="2940" as="sourcePoint"/>
                        <mxPoint x="239" y="2940" as="targetPoint"/>
                    </mxGeometry>
                </mxCell>
                <mxCell id="132" value="" style="endArrow=classic;html=1;" parent="1" edge="1">
                    <mxGeometry width="50" height="50" relative="1" as="geometry">
                        <mxPoint x="90" y="2990" as="sourcePoint"/>
                        <mxPoint x="70" y="2990" as="targetPoint"/>
                    </mxGeometry>
                </mxCell>
                <mxCell id="133" value="" style="endArrow=classic;html=1;" parent="1" edge="1">
                    <mxGeometry width="50" height="50" relative="1" as="geometry">
                        <mxPoint x="90" y="2750" as="sourcePoint"/>
                        <mxPoint x="70" y="2750" as="targetPoint"/>
                    </mxGeometry>
                </mxCell>
                <mxCell id="134" value="" style="endArrow=classic;html=1;" parent="1" edge="1">
                    <mxGeometry width="50" height="50" relative="1" as="geometry">
                        <mxPoint x="259" y="2700" as="sourcePoint"/>
                        <mxPoint x="239" y="2700" as="targetPoint"/>
                        <Array as="points">
                            <mxPoint x="249" y="2700"/>
                        </Array>
                    </mxGeometry>
                </mxCell>
                <mxCell id="136" value="&lt;div&gt;&lt;font face=&quot;Verdana&quot;&gt;12-Notify &quot;Approved&quot;&lt;/font&gt;&lt;/div&gt;" style="text;html=1;align=center;verticalAlign=middle;whiteSpace=wrap;rounded=0;fillColor=none;" parent="1" vertex="1">
                    <mxGeometry x="34.5" y="2720" width="250" height="30" as="geometry"/>
                </mxCell>
                <mxCell id="137" value="&lt;div&gt;&lt;font face=&quot;Verdana&quot;&gt;13-Reject&lt;/font&gt;&lt;/div&gt;" style="text;html=1;align=center;verticalAlign=middle;whiteSpace=wrap;rounded=0;fillColor=none;" parent="1" vertex="1">
                    <mxGeometry x="310" y="2802" width="250" height="30" as="geometry"/>
                </mxCell>
                <mxCell id="138" value="&lt;div&gt;&lt;font face=&quot;Verdana&quot;&gt;14-Update status:rejected&lt;/font&gt;&lt;/div&gt;" style="text;html=1;align=center;verticalAlign=middle;whiteSpace=wrap;rounded=0;fillColor=none;" parent="1" vertex="1">
                    <mxGeometry x="235" y="2850" width="250" height="30" as="geometry"/>
                </mxCell>
                <mxCell id="139" value="&lt;div&gt;&lt;font face=&quot;Verdana&quot;&gt;16-Notify&quot;Rejected&quot;&lt;/font&gt;&lt;/div&gt;" style="text;html=1;align=center;verticalAlign=middle;whiteSpace=wrap;rounded=0;fillColor=none;" parent="1" vertex="1">
                    <mxGeometry x="40" y="2960" width="250" height="30" as="geometry"/>
                </mxCell>
                <mxCell id="142" value="" style="endArrow=none;dashed=1;html=1;" parent="1" edge="1">
                    <mxGeometry width="50" height="50" relative="1" as="geometry">
                        <mxPoint x="260" y="2940" as="sourcePoint"/>
                        <mxPoint x="480" y="2940" as="targetPoint"/>
                        <Array as="points">
                            <mxPoint x="370" y="2940"/>
                        </Array>
                    </mxGeometry>
                </mxCell>
                <mxCell id="143" value="&lt;div&gt;&lt;font face=&quot;Verdana&quot;&gt;15-Confirmation&lt;/font&gt;&lt;/div&gt;" style="text;html=1;align=center;verticalAlign=middle;whiteSpace=wrap;rounded=0;fillColor=none;" parent="1" vertex="1">
                    <mxGeometry x="235" y="2910" width="250" height="30" as="geometry"/>
>>>>>>> origin/main
                </mxCell>
                <mxCell id="144" value="" style="rounded=0;whiteSpace=wrap;html=1;" parent="1" vertex="1">
                    <mxGeometry x="70" y="2070" width="560" height="440" as="geometry"/>
                </mxCell>
                <mxCell id="145" value="" style="endArrow=classic;html=1;" parent="1" edge="1">
                    <mxGeometry width="50" height="50" relative="1" as="geometry">
                        <mxPoint x="70" y="2110" as="sourcePoint"/>
                        <mxPoint x="240" y="2110" as="targetPoint"/>
                    </mxGeometry>
                </mxCell>
                <mxCell id="146" value="" style="endArrow=classic;html=1;" parent="1" edge="1">
                    <mxGeometry width="50" height="50" relative="1" as="geometry">
                        <mxPoint x="240" y="2160" as="sourcePoint"/>
                        <mxPoint x="480" y="2160" as="targetPoint"/>
                    </mxGeometry>
                </mxCell>
<<<<<<< HEAD
                <mxCell id="148" value="" style="endArrow=none;dashed=1;html=1;dashPattern=1 3;strokeWidth=2;" parent="1" edge="1">
                    <mxGeometry width="50" height="50" relative="1" as="geometry">
                        <mxPoint x="92.5" y="2210" as="sourcePoint"/>
                        <mxPoint x="237.5" y="2210" as="targetPoint"/>
=======
                <mxCell id="147" value="" style="endArrow=none;dashed=1;html=1;dashPattern=1 3;strokeWidth=2;" parent="1" edge="1">
                    <mxGeometry width="50" height="50" relative="1" as="geometry">
                        <mxPoint x="260" y="2210" as="sourcePoint"/>
                        <mxPoint x="480" y="2210" as="targetPoint"/>
                    </mxGeometry>
                </mxCell>
                <mxCell id="148" value="" style="endArrow=none;dashed=1;html=1;dashPattern=1 3;strokeWidth=2;" parent="1" edge="1">
                    <mxGeometry width="50" height="50" relative="1" as="geometry">
                        <mxPoint x="95" y="2260" as="sourcePoint"/>
                        <mxPoint x="240" y="2260" as="targetPoint"/>
                    </mxGeometry>
                </mxCell>
                <mxCell id="149" value="" style="endArrow=classic;html=1;" parent="1" edge="1">
                    <mxGeometry width="50" height="50" relative="1" as="geometry">
                        <mxPoint x="260" y="2210" as="sourcePoint"/>
                        <mxPoint x="240" y="2210" as="targetPoint"/>
>>>>>>> origin/main
                    </mxGeometry>
                </mxCell>
                <mxCell id="150" value="" style="endArrow=classic;html=1;" parent="1" edge="1">
                    <mxGeometry width="50" height="50" relative="1" as="geometry">
<<<<<<< HEAD
                        <mxPoint x="90" y="2210" as="sourcePoint"/>
                        <mxPoint x="70" y="2210" as="targetPoint"/>
                        <Array as="points"/>
                    </mxGeometry>
                </mxCell>
                <mxCell id="151" value="&lt;span&gt;&lt;font style=&quot;color: rgb(0, 0, 0);&quot;&gt;2.Store info(status:pending)&lt;/font&gt;&lt;/span&gt;" style="text;html=1;align=center;verticalAlign=middle;whiteSpace=wrap;rounded=0;" parent="1" vertex="1">
                    <mxGeometry x="245.5" y="2130" width="220" height="30" as="geometry"/>
                </mxCell>
                <mxCell id="153" value="&lt;div&gt;&lt;font style=&quot;color: rgb(0, 0, 0);&quot;&gt;3.&quot;Pending approval&quot;&lt;/font&gt;&lt;/div&gt;" style="text;html=1;align=center;verticalAlign=middle;whiteSpace=wrap;rounded=0;" parent="1" vertex="1">
                    <mxGeometry x="46.5" y="2180" width="199" height="30" as="geometry"/>
=======
                        <mxPoint x="90" y="2260" as="sourcePoint"/>
                        <mxPoint x="70" y="2260" as="targetPoint"/>
                        <Array as="points"/>
                    </mxGeometry>
                </mxCell>
                <mxCell id="151" value="&lt;span&gt;&lt;font style=&quot;color: rgb(0, 0, 0);&quot;&gt;2-Store volunteer info(status:pending)&lt;/font&gt;&lt;/span&gt;" style="text;html=1;align=center;verticalAlign=middle;whiteSpace=wrap;rounded=0;" parent="1" vertex="1">
                    <mxGeometry x="245.5" y="2130" width="220" height="30" as="geometry"/>
                </mxCell>
                <mxCell id="152" value="&lt;div&gt;&lt;font style=&quot;color: rgb(0, 0, 0);&quot;&gt;3-Confirmation&lt;/font&gt;&lt;/div&gt;" style="text;html=1;align=center;verticalAlign=middle;whiteSpace=wrap;rounded=0;" parent="1" vertex="1">
                    <mxGeometry x="271" y="2180" width="199" height="30" as="geometry"/>
                </mxCell>
                <mxCell id="153" value="&lt;div&gt;&lt;font style=&quot;color: rgb(0, 0, 0);&quot;&gt;4-Awaiting approval&lt;/font&gt;&lt;/div&gt;" style="text;html=1;align=center;verticalAlign=middle;whiteSpace=wrap;rounded=0;" parent="1" vertex="1">
                    <mxGeometry x="60" y="2230" width="199" height="30" as="geometry"/>
                </mxCell>
                <mxCell id="154" value="" style="endArrow=classic;html=1;strokeColor=#000000;exitX=0.997;exitY=0.521;exitDx=0;exitDy=0;exitPerimeter=0;" parent="1" source="144" edge="1">
                    <mxGeometry width="50" height="50" relative="1" as="geometry">
                        <mxPoint x="615" y="2300" as="sourcePoint"/>
                        <mxPoint x="235" y="2300" as="targetPoint"/>
                    </mxGeometry>
                </mxCell>
                <mxCell id="155" value="5-Login&lt;div&gt;&lt;br&gt;&lt;/div&gt;" style="edgeLabel;html=1;align=center;verticalAlign=middle;resizable=0;points=[];fontSize=12;" parent="154" vertex="1" connectable="0">
                    <mxGeometry x="0.0962" y="-4" relative="1" as="geometry">
                        <mxPoint x="-47" y="-16" as="offset"/>
                    </mxGeometry>
                </mxCell>
                <mxCell id="156" value="" style="endArrow=classic;html=1;" parent="1" edge="1">
                    <mxGeometry width="50" height="50" relative="1" as="geometry">
                        <mxPoint x="240" y="2360" as="sourcePoint"/>
                        <mxPoint x="485" y="2360" as="targetPoint"/>
                        <Array as="points">
                            <mxPoint x="349.25" y="2361"/>
                        </Array>
                    </mxGeometry>
                </mxCell>
                <mxCell id="157" value="" style="endArrow=none;dashed=1;html=1;" parent="1" edge="1">
                    <mxGeometry width="50" height="50" relative="1" as="geometry">
                        <mxPoint x="260" y="2430" as="sourcePoint"/>
                        <mxPoint x="480" y="2430" as="targetPoint"/>
                    </mxGeometry>
                </mxCell>
                <mxCell id="158" value="" style="endArrow=none;dashed=1;html=1;" parent="1" edge="1">
                    <mxGeometry width="50" height="50" relative="1" as="geometry">
                        <mxPoint x="240" y="2480" as="sourcePoint"/>
                        <mxPoint x="620" y="2480" as="targetPoint"/>
                    </mxGeometry>
                </mxCell>
                <mxCell id="159" value="" style="endArrow=classic;html=1;" parent="1" edge="1">
                    <mxGeometry width="50" height="50" relative="1" as="geometry">
                        <mxPoint x="260" y="2430" as="sourcePoint"/>
                        <mxPoint x="240" y="2430" as="targetPoint"/>
                    </mxGeometry>
                </mxCell>
                <mxCell id="160" value="" style="endArrow=classic;html=1;entryX=0.994;entryY=0.93;entryDx=0;entryDy=0;entryPerimeter=0;" parent="1" target="144" edge="1">
                    <mxGeometry width="50" height="50" relative="1" as="geometry">
                        <mxPoint x="600" y="2480" as="sourcePoint"/>
                        <mxPoint x="620" y="2480" as="targetPoint"/>
                        <Array as="points"/>
                    </mxGeometry>
>>>>>>> origin/main
                </mxCell>
                <mxCell id="161" value="" style="endArrow=none;dashed=1;html=1;" parent="1" edge="1">
                    <mxGeometry width="50" height="50" relative="1" as="geometry">
                        <mxPoint x="265.5" y="2430" as="sourcePoint"/>
                        <mxPoint x="266" y="2430" as="targetPoint"/>
                    </mxGeometry>
                </mxCell>
<<<<<<< HEAD
=======
                <mxCell id="162" value="&lt;font face=&quot;Verdana&quot; style=&quot;color: rgb(0, 0, 0);&quot;&gt;6-&lt;span style=&quot;font-size: 12.573px; text-align: start; background-color: transparent;&quot;&gt;validate credentials&amp;nbsp;&lt;/span&gt;&lt;/font&gt;" style="text;html=1;align=center;verticalAlign=middle;whiteSpace=wrap;rounded=0;fillColor=none;" parent="1" vertex="1">
                    <mxGeometry x="265.5" y="2330" width="210" height="30" as="geometry"/>
                </mxCell>
                <mxCell id="163" value="&lt;font face=&quot;Verdana&quot; style=&quot;color: rgb(0, 0, 0);&quot;&gt;7&lt;/font&gt;&lt;font style=&quot;background-color: transparent; color: rgb(0, 0, 0);&quot; face=&quot;Verdana&quot;&gt;-&lt;span style=&quot;font-size: 12.573px; text-align: start; background-color: transparent;&quot;&gt;&amp;nbsp;credentials&amp;nbsp;&lt;/span&gt;&lt;/font&gt;&lt;span style=&quot;background-color: transparent; font-family: Verdana; font-size: 12.573px; text-align: start; color: rgb(63, 63, 63);&quot;&gt;valid&lt;/span&gt;" style="text;html=1;align=center;verticalAlign=middle;whiteSpace=wrap;rounded=0;fillColor=none;" parent="1" vertex="1">
                    <mxGeometry x="245.5" y="2390" width="250" height="30" as="geometry"/>
                </mxCell>
                <mxCell id="164" value="&lt;font face=&quot;Verdana&quot;&gt;8-Showing&amp;nbsp; pending requests&lt;/font&gt;" style="text;html=1;align=center;verticalAlign=middle;whiteSpace=wrap;rounded=0;fillColor=none;" parent="1" vertex="1">
                    <mxGeometry x="330" y="2450" width="250" height="30" as="geometry"/>
                </mxCell>
>>>>>>> origin/main
                <mxCell id="165" value="" style="endArrow=none;html=1;entryX=0.304;entryY=0.006;entryDx=0;entryDy=0;entryPerimeter=0;" parent="1" target="144" edge="1">
                    <mxGeometry width="50" height="50" relative="1" as="geometry">
                        <mxPoint x="240" y="2520" as="sourcePoint"/>
                        <mxPoint x="241" y="2070" as="targetPoint"/>
                    </mxGeometry>
                </mxCell>
                <mxCell id="167" value="" style="endArrow=none;html=1;exitX=0.736;exitY=0.997;exitDx=0;exitDy=0;exitPerimeter=0;" parent="1" source="144" edge="1">
                    <mxGeometry width="50" height="50" relative="1" as="geometry">
                        <mxPoint x="480" y="2510" as="sourcePoint"/>
                        <mxPoint x="482" y="2060" as="targetPoint"/>
                    </mxGeometry>
                </mxCell>
<<<<<<< HEAD
                <mxCell id="168" value="&lt;div&gt;1.SignUp(submit details)&lt;/div&gt;" style="text;html=1;align=center;verticalAlign=middle;whiteSpace=wrap;rounded=0;" parent="1" vertex="1">
                    <mxGeometry x="46.5" y="2080" width="199" height="30" as="geometry"/>
                </mxCell>
                <mxCell id="170" value="" style="rounded=0;whiteSpace=wrap;html=1;" vertex="1" parent="1">
                    <mxGeometry x="450" y="2270" width="180" height="170" as="geometry"/>
                </mxCell>
                <mxCell id="173" value="Admin review&lt;div&gt;&lt;br&gt;&lt;/div&gt;" style="text;html=1;align=center;verticalAlign=middle;whiteSpace=wrap;rounded=0;" vertex="1" parent="1">
                    <mxGeometry x="540" y="2290" width="80" height="30" as="geometry"/>
                </mxCell>
                <mxCell id="175" value="" style="endArrow=classic;html=1;entryX=0.018;entryY=0.412;entryDx=0;entryDy=0;entryPerimeter=0;exitX=0.996;exitY=0.416;exitDx=0;exitDy=0;exitPerimeter=0;" edge="1" parent="1">
                    <mxGeometry width="50" height="50" relative="1" as="geometry">
                        <mxPoint x="630" y="2355.32" as="sourcePoint"/>
                        <mxPoint x="453.96000000000004" y="2354.64" as="targetPoint"/>
                        <Array as="points">
                            <mxPoint x="560.72" y="2354.6"/>
                        </Array>
                    </mxGeometry>
                </mxCell>
                <mxCell id="176" value="4.Fetch pending request" style="text;html=1;align=center;verticalAlign=middle;whiteSpace=wrap;rounded=0;" vertex="1" parent="1">
                    <mxGeometry x="440" y="2320" width="200" height="30" as="geometry"/>
                </mxCell>
                <mxCell id="177" value="" style="endArrow=none;dashed=1;html=1;dashPattern=1 3;strokeWidth=2;entryX=0.991;entryY=0.68;entryDx=0;entryDy=0;entryPerimeter=0;" edge="1" parent="1">
                    <mxGeometry width="50" height="50" relative="1" as="geometry">
                        <mxPoint x="450" y="2390" as="sourcePoint"/>
                        <mxPoint x="619.19" y="2390" as="targetPoint"/>
                    </mxGeometry>
                </mxCell>
                <mxCell id="179" value="" style="endArrow=classic;html=1;entryX=1.013;entryY=0.704;entryDx=0;entryDy=0;entryPerimeter=0;" edge="1" parent="1" target="170">
                    <mxGeometry width="50" height="50" relative="1" as="geometry">
                        <mxPoint x="620" y="2390" as="sourcePoint"/>
                        <mxPoint x="450" y="2390" as="targetPoint"/>
                        <Array as="points"/>
                    </mxGeometry>
                </mxCell>
                <mxCell id="180" value="Show list" style="text;html=1;align=center;verticalAlign=middle;whiteSpace=wrap;rounded=0;" vertex="1" parent="1">
                    <mxGeometry x="500" y="2360" width="60" height="30" as="geometry"/>
                </mxCell>
                <mxCell id="181" value="&lt;b style=&quot;background-color: rgb(153, 204, 255);&quot;&gt;Loop&lt;/b&gt;&lt;div&gt;&lt;br&gt;&lt;/div&gt;" style="text;html=1;align=center;verticalAlign=middle;whiteSpace=wrap;rounded=0;" vertex="1" parent="1">
                    <mxGeometry x="440" y="2270" width="70" height="40" as="geometry"/>
                </mxCell>
                <mxCell id="185" value="" style="endArrow=classic;html=1;entryX=0.98;entryY=0;entryDx=0;entryDy=0;entryPerimeter=0;" edge="1" parent="1">
                    <mxGeometry width="50" height="50" relative="1" as="geometry">
                        <mxPoint x="630" y="2610" as="sourcePoint"/>
                        <mxPoint x="482" y="2610" as="targetPoint"/>
                    </mxGeometry>
                </mxCell>
                <mxCell id="186" value="" style="endArrow=classic;html=1;" edge="1" parent="1">
                    <mxGeometry width="50" height="50" relative="1" as="geometry">
                        <mxPoint x="480" y="2670" as="sourcePoint"/>
                        <mxPoint x="240" y="2670" as="targetPoint"/>
                    </mxGeometry>
                </mxCell>
                <mxCell id="187" value="6.Sync status update" style="text;html=1;align=center;verticalAlign=middle;whiteSpace=wrap;rounded=0;" vertex="1" parent="1">
                    <mxGeometry x="295" y="2640" width="120" height="30" as="geometry"/>
                </mxCell>
                <mxCell id="188" value="" style="endArrow=classic;html=1;entryX=-0.001;entryY=0.421;entryDx=0;entryDy=0;entryPerimeter=0;" edge="1" parent="1">
                    <mxGeometry width="50" height="50" relative="1" as="geometry">
                        <mxPoint x="240.56" y="2730" as="sourcePoint"/>
                        <mxPoint x="70.00000000000006" y="2730.5000000000005" as="targetPoint"/>
                        <Array as="points">
                            <mxPoint x="150.56" y="2731"/>
                        </Array>
                    </mxGeometry>
                </mxCell>
                <mxCell id="189" value="&lt;font face=&quot;Verdana&quot;&gt;8.Reject&lt;/font&gt;&lt;br&gt;&lt;div&gt;&lt;div&gt;&lt;font face=&quot;Verdana&quot;&gt;(set status=rejected)&lt;/font&gt;&lt;/div&gt;&lt;/div&gt;" style="text;html=1;align=center;verticalAlign=middle;whiteSpace=wrap;rounded=0;fillColor=none;" vertex="1" parent="1">
                    <mxGeometry x="465.5" y="2802" width="185" height="50" as="geometry"/>
                </mxCell>
                <mxCell id="190" value="" style="endArrow=classic;html=1;" edge="1" parent="1">
                    <mxGeometry width="50" height="50" relative="1" as="geometry">
                        <mxPoint x="480" y="2910" as="sourcePoint"/>
                        <mxPoint x="240" y="2910" as="targetPoint"/>
                        <Array as="points">
                            <mxPoint x="365.5" y="2910"/>
                        </Array>
                    </mxGeometry>
                </mxCell>
                <mxCell id="191" value="9.Sync status update" style="text;html=1;align=center;verticalAlign=middle;whiteSpace=wrap;rounded=0;" vertex="1" parent="1">
                    <mxGeometry x="300" y="2880" width="120" height="30" as="geometry"/>
                </mxCell>
                <mxCell id="193" value="" style="endArrow=classic;html=1;entryX=-0.001;entryY=0.421;entryDx=0;entryDy=0;entryPerimeter=0;" edge="1" parent="1">
                    <mxGeometry width="50" height="50" relative="1" as="geometry">
                        <mxPoint x="240.56" y="2980" as="sourcePoint"/>
                        <mxPoint x="70.00000000000006" y="2980.5000000000005" as="targetPoint"/>
                        <Array as="points"/>
                    </mxGeometry>
=======
                <mxCell id="168" value="1-Register(enter detalis)&lt;div&gt;&lt;br&gt;&lt;/div&gt;" style="text;html=1;align=center;verticalAlign=middle;whiteSpace=wrap;rounded=0;" parent="1" vertex="1">
                    <mxGeometry x="46.5" y="2090" width="199" height="30" as="geometry"/>
>>>>>>> origin/main
                </mxCell>
            </root>
        </mxGraphModel>
    </diagram>
</mxfile>